<?xml version="1.0" encoding="UTF-8" standalone="no"?>
<!-- Created with Inkscape (http://www.inkscape.org/) -->

<svg
   width="210mm"
   height="297mm"
   viewBox="0 0 210 297"
   version="1.1"
   id="svg3033"
   inkscape:version="1.1 (c68e22c387, 2021-05-23)"
   sodipodi:docname="Cycling.svg"
   xmlns:inkscape="http://www.inkscape.org/namespaces/inkscape"
   xmlns:sodipodi="http://sodipodi.sourceforge.net/DTD/sodipodi-0.dtd"
   xmlns="http://www.w3.org/2000/svg"
   xmlns:svg="http://www.w3.org/2000/svg">
  <sodipodi:namedview
     id="namedview3035"
     pagecolor="#ffffff"
     bordercolor="#666666"
     borderopacity="1.0"
     inkscape:pageshadow="2"
     inkscape:pageopacity="0.0"
     inkscape:pagecheckerboard="0"
     inkscape:document-units="mm"
     showgrid="false"
     inkscape:zoom="0.72337262"
     inkscape:cx="125.10841"
     inkscape:cy="561.95105"
     inkscape:window-width="1920"
     inkscape:window-height="1001"
     inkscape:window-x="-9"
     inkscape:window-y="-9"
     inkscape:window-maximized="1"
     inkscape:current-layer="layer4" />
  <defs
     id="defs3030" />
  <g
     inkscape:label="Layer 1"
     inkscape:groupmode="layer"
     id="layer1">
    <g
       inkscape:groupmode="layer"
       id="layer4"
       inkscape:label="Layer 2">
      <rect
         style="fill:#000000;fill-opacity:1;stroke-width:0.6082"
         id="rect3665"
         width="120"
         height="120"
         x="73.518471"
         y="115.94707"
         inkscape:export-filename="C:\Users\lesle\OneDrive\Documenten\Projects\Fitbit_Interval_Training\Figures\Cycling.png"
         inkscape:export-xdpi="96"
         inkscape:export-ydpi="96" />
    </g>
    <g
       id="g3127"
       transform="matrix(0.26458333,0,0,0.26458333,82.542035,120.94722)"
       inkscape:export-filename="C:\Users\lesle\OneDrive\Documenten\Projects\Fitbit_Interval_Training\Figures\Cycling.png"
       inkscape:export-xdpi="96"
       inkscape:export-ydpi="96">
      <path
         style="stroke:#000000;stroke-width:0;stroke-linecap:round;stroke-linejoin:round;fill:#ffffff;fill-opacity:1"
         d="m 304.45,149.368 c -12.488,0 -24.322,2.85 -34.889,7.932 l -21.388,-34.911 v -15.092 h 5.811 c 4.584,0 8.3,-3.716 8.3,-8.3 0,-4.584 -3.716,-8.3 -8.3,-8.3 h -41.501 c -4.584,0 -8.3,3.716 -8.3,8.3 0,4.584 3.716,8.3 8.3,8.3 h 19.09 v 9.133 H 143.87 l -12.046,-25.477 1.596,-0.645 c 4.251,-1.716 6.306,-6.553 4.59,-10.803 -1.716,-4.251 -6.551,-6.307 -10.804,-4.59 l -9.752,3.937 c -2.119,0.854 -3.791,2.546 -4.623,4.674 -0.832,2.128 -0.75,4.505 0.227,6.57 l 16.243,34.352 -17.155,31.262 c -9.65,-4.083 -20.252,-6.343 -31.373,-6.343 C 36.234,149.368 0,185.601 0,230.138 c 0,44.539 36.234,80.774 80.772,80.774 44.539,0 80.773,-36.235 80.773,-80.774 0,-27.494 -13.82,-51.811 -34.867,-66.404 l 12.634,-23.024 62.87,94.042 c 1.54,2.304 4.128,3.686 6.9,3.686 h 15.019 c 4.169,40.654 38.612,72.475 80.349,72.475 44.538,0 80.772,-36.235 80.772,-80.774 0.001,-44.538 -36.234,-80.771 -80.772,-80.771 z m -159.504,80.77 c 0,35.386 -28.788,64.175 -64.173,64.175 -35.385,0 -64.173,-28.789 -64.173,-64.175 0,-35.383 28.788,-64.17 64.173,-64.17 8.228,0 16.091,1.573 23.326,4.407 l -30.603,55.77 c -2.206,4.019 -0.735,9.064 3.283,11.27 1.267,0.695 2.636,1.025 3.986,1.025 2.932,0 5.774,-1.557 7.284,-4.309 l 30.595,-55.755 c 15.932,11.688 26.302,30.533 26.302,51.762 z m 119.206,-49.891 25.479,41.591 h -48.8 c 2.173,-16.733 10.806,-31.462 23.321,-41.591 z m -50.634,41.591 -59.371,-88.809 h 81.078 l 20.203,32.977 c -17.214,13.188 -28.997,33.126 -31.326,55.832 z m 90.932,72.475 c -32.571,0 -59.533,-24.398 -63.619,-55.875 h 63.619 c 3.004,0 5.773,-1.623 7.242,-4.244 1.468,-2.62 1.405,-5.83 -0.164,-8.392 l -33.23,-54.241 c 7.994,-3.583 16.84,-5.593 26.152,-5.593 35.385,0 64.173,28.787 64.173,64.17 0,35.386 -28.788,64.175 -64.173,64.175 z"
         id="path3074"
         inkscape:export-filename="C:\Users\lesle\OneDrive\Documenten\Projects\Fitbit_Interval_Training\Figures\Cycling.png"
         inkscape:export-xdpi="96"
         inkscape:export-ydpi="96" />
      <g
         id="g3076">
</g>
      <g
         id="g3078">
</g>
      <g
         id="g3080">
</g>
      <g
         id="g3082">
</g>
      <g
         id="g3084">
</g>
      <g
         id="g3086">
</g>
      <g
         id="g3088">
</g>
      <g
         id="g3090">
</g>
      <g
         id="g3092">
</g>
      <g
         id="g3094">
</g>
      <g
         id="g3096">
</g>
      <g
         id="g3098">
</g>
      <g
         id="g3100">
</g>
      <g
         id="g3102">
</g>
      <g
         id="g3104">
</g>
    </g>
  </g>
</svg>
