<?xml version="1.0" encoding="iso-8859-1"?>
<!-- Generator: Adobe Illustrator 18.0.0, SVG Export Plug-In . SVG Version: 6.00 Build 0)  -->
<!DOCTYPE svg PUBLIC "-//W3C//DTD SVG 1.1//EN" "http://www.w3.org/Graphics/SVG/1.1/DTD/svg11.dtd">
<svg version="1.1" id="Capa_1" xmlns="http://www.w3.org/2000/svg" xmlns:xlink="http://www.w3.org/1999/xlink" x="0px" y="0px"
	 viewBox="0 0 385.223 385.223" style="enable-background:new 0 0 385.223 385.223;" xml:space="preserve">
<path style="stroke:#000000;stroke-width:0;stroke-linecap:round;stroke-linejoin:round;" d="M304.45,149.368
	c-12.488,0-24.322,2.85-34.889,7.932l-21.388-34.911v-15.092h5.811c4.584,0,8.3-3.716,8.3-8.3s-3.716-8.3-8.3-8.3h-41.501
	c-4.584,0-8.3,3.716-8.3,8.3s3.716,8.3,8.3,8.3h19.09v9.133h-87.703l-12.046-25.477l1.596-0.645
	c4.251-1.716,6.306-6.553,4.59-10.803c-1.716-4.251-6.551-6.307-10.804-4.59l-9.752,3.937c-2.119,0.854-3.791,2.546-4.623,4.674
	c-0.832,2.128-0.75,4.505,0.227,6.57l16.243,34.352l-17.155,31.262c-9.65-4.083-20.252-6.343-31.373-6.343
	C36.234,149.368,0,185.601,0,230.138c0,44.539,36.234,80.774,80.772,80.774c44.539,0,80.773-36.235,80.773-80.774
	c0-27.494-13.82-51.811-34.867-66.404l12.634-23.024l62.87,94.042c1.54,2.304,4.128,3.686,6.9,3.686h15.019
	c4.169,40.654,38.612,72.475,80.349,72.475c44.538,0,80.772-36.235,80.772-80.774C385.223,185.601,348.988,149.368,304.45,149.368z
	 M144.946,230.138c0,35.386-28.788,64.175-64.173,64.175c-35.385,0-64.173-28.789-64.173-64.175c0-35.383,28.788-64.17,64.173-64.17
	c8.228,0,16.091,1.573,23.326,4.407l-30.603,55.77c-2.206,4.019-0.735,9.064,3.283,11.27c1.267,0.695,2.636,1.025,3.986,1.025
	c2.932,0,5.774-1.557,7.284-4.309l30.595-55.755C134.576,190.064,144.946,208.909,144.946,230.138z M264.152,180.247l25.479,41.591
	h-48.8C243.004,205.105,251.637,190.376,264.152,180.247z M213.518,221.838l-59.371-88.809h81.078l20.203,32.977
	c-17.214,13.188-28.997,33.126-31.326,55.832H213.518z M304.45,294.313c-32.571,0-59.533-24.398-63.619-55.875h63.619
	c3.004,0,5.773-1.623,7.242-4.244c1.468-2.62,1.405-5.83-0.164-8.392l-33.23-54.241c7.994-3.583,16.84-5.593,26.152-5.593
	c35.385,0,64.173,28.787,64.173,64.17C368.623,265.524,339.835,294.313,304.45,294.313z"/>
<g>
</g>
<g>
</g>
<g>
</g>
<g>
</g>
<g>
</g>
<g>
</g>
<g>
</g>
<g>
</g>
<g>
</g>
<g>
</g>
<g>
</g>
<g>
</g>
<g>
</g>
<g>
</g>
<g>
</g>
</svg>
